<?xml version="1.0" encoding="utf-8"?>
<!-- Generator: Adobe Illustrator 19.1.0, SVG Export Plug-In . SVG Version: 6.00 Build 0)  -->
<!DOCTYPE svg PUBLIC "-//W3C//DTD SVG 1.1//EN" "http://www.w3.org/Graphics/SVG/1.1/DTD/svg11.dtd">
<svg version="1.1" xmlns="http://www.w3.org/2000/svg" xmlns:xlink="http://www.w3.org/1999/xlink" x="0px" y="0px"
	 viewBox="0 0 842 180" style="enable-background:new 0 0 842 180;" xml:space="preserve">
<style type="text/css">
	.st0{fill:#FFFFFF;}
	.st1{fill-rule:evenodd;clip-rule:evenodd;fill:#9933FF;}
	.st2{fill-rule:evenodd;clip-rule:evenodd;fill:#00CCFF;}
	.st3{fill-rule:evenodd;clip-rule:evenodd;fill:#00FF99;}
	.st4{fill-rule:evenodd;clip-rule:evenodd;fill:#FFF35C;}
	.st5{fill-rule:evenodd;clip-rule:evenodd;fill:#FF6666;}
	.st6{opacity:0.4;fill-rule:evenodd;clip-rule:evenodd;fill:#0F0F0F;}
</style>
<g id="Y">
	<path class="st0" d="M764.9,68.4L795,20.4h44.5v1.8l-55.5,82.3v55.7h-39.5v-55.7L691.4,22v-1.6h44.5L764.9,68.4z"/>
</g>
<g id="H">
	<path class="st0" d="M640.3,160.4v-52.9H590v52.9h-39.5V20.6H590v53.1h50.3V20.6h39.1v139.8H640.3z"/>
</g>
<g id="P">
	<path class="st0" d="M451.4,122.5v37.7h-39.5V20.4h67.9c37.5,0,56.1,23.6,56.1,50.9c0,28.6-18.8,50.7-56.1,51.1H451.4z M451.4,89.1
		h28.4c11,0,16.6-8,16.6-17.2c0-9.2-5.8-17.6-16.6-17.6h-28.4V89.1z"/>
</g>
<g id="I">
	<path class="st0" d="M348.2,160.2V20.4h39.3v139.8H348.2z"/>
</g>
<g id="G">
	<path class="st0" d="M300.9,61.8c-10.2-9.6-22.6-12.2-31.9-12.2c-22.8,0-37.5,13.6-37.5,40.9c0,18,9.4,40.1,37.5,40.1
		c7.4,0,19-1.4,27-7.2v-18h-35.3V74.5h68.3v62.1c-8.8,17.8-33.1,27.4-60.1,27.4c-55.3,0-76.3-36.9-76.3-73.5
		c0-36.5,24-74.1,76.5-74.1c19.4,0,36.5,4,54.9,22.6L300.9,61.8z"/>
</g>
<g id="Purple">
	<g>
		<rect x="120" y="60" class="st1" width="20" height="100"/>
	</g>
</g>
<g id="Blue">
	<rect y="160" class="st2" width="140" height="20"/>
</g>
<g id="Green">
	<rect y="20" class="st3" width="20" height="140"/>
</g>
<g id="Yellow">
	<rect class="st4" width="80" height="20"/>
</g>
<g id="Red_Corner">
	<polygon class="st5" points="120,40 120,20 100,20 100,0 80,0 80,20.1 80,20.2 80,40.1 80,40.1 80,60 100,60 120,60 120,60 140,60 
		140,40 	"/>
</g>
<g id="Yellow_Shadow">
	<polygon class="st6" points="80,0 80,20 60,20 	"/>
</g>
<g id="Purple_Shadow">
	<polygon class="st6" points="120,80.2 120,60 140,60 	"/>
</g>
</svg>
